<svg width="62" height="21" viewBox="0 0 62 21" fill="none" xmlns="http://www.w3.org/2000/svg">
<path d="M13.0766 6.046L19.5566 10.054V11.41L14.8826 14.314L14.0246 13.024L17.9246 10.732L12.2366 7.408L13.0766 6.046ZM6.72862 7.15L7.55662 8.458L3.66262 10.732L9.09262 13.924L8.24062 15.274L2.02462 11.41V10.066L6.72862 7.15ZM8.66062 16.582L7.17862 15.904L12.5786 4.696L14.0486 5.374L8.66062 16.582Z" fill="white"/>
<path d="M29.472 10.4C29.472 9.65333 29.408 9.04533 29.28 8.576C29.1573 8.10667 28.984 7.744 28.76 7.488C28.5413 7.232 28.2827 7.056 27.984 6.96C27.6853 6.864 27.3627 6.816 27.016 6.816H26.456V14.104H27.016C27.3787 14.104 27.7093 14.048 28.008 13.936C28.312 13.8187 28.5733 13.624 28.792 13.352C29.0107 13.0747 29.1787 12.696 29.296 12.216C29.4133 11.736 29.472 11.1307 29.472 10.4ZM32.192 10.4C32.192 11.3013 32.096 12.0747 31.904 12.72C31.712 13.36 31.4427 13.8933 31.096 14.32C30.7547 14.7467 30.3573 15.0827 29.904 15.328C29.4507 15.5733 28.9627 15.7467 28.44 15.848C27.9173 15.9493 27.3787 16 26.824 16H23.832V4.912H26.632C27.3413 4.912 28.0267 4.98667 28.688 5.136C29.3547 5.28 29.9493 5.54933 30.472 5.944C31 6.33333 31.4187 6.888 31.728 7.608C32.0373 8.32267 32.192 9.25333 32.192 10.4ZM38.9058 7.504V14.272H41.0658V16H33.9698V14.272H36.3778V9.232H34.0498V7.504H38.9058ZM37.3778 3.056C37.8151 3.056 38.1724 3.192 38.4498 3.464C38.7271 3.736 38.8658 4.07467 38.8658 4.48C38.8658 4.88533 38.7271 5.22667 38.4498 5.504C38.1724 5.776 37.8151 5.912 37.3778 5.912C36.9351 5.912 36.5724 5.776 36.2898 5.504C36.0124 5.22667 35.8738 4.88533 35.8738 4.48C35.8738 4.07467 36.0124 3.736 36.2898 3.464C36.5724 3.192 36.9351 3.056 37.3778 3.056ZM49.5875 7.224C49.9928 7.224 50.3262 7.30933 50.5875 7.48C50.8488 7.65067 51.0435 7.92 51.1715 8.288C51.2995 8.65067 51.3635 9.12533 51.3635 9.712V16H49.1955V10C49.1955 9.70133 49.1662 9.49067 49.1075 9.368C49.0542 9.24533 48.9422 9.184 48.7715 9.184C48.6382 9.184 48.4995 9.224 48.3555 9.304C48.2168 9.37867 48.0622 9.52267 47.8915 9.736V16H46.1155V10C46.1155 9.70133 46.0862 9.49067 46.0275 9.368C45.9742 9.24533 45.8622 9.184 45.6915 9.184C45.5582 9.184 45.4195 9.224 45.2755 9.304C45.1368 9.37867 44.9822 9.52267 44.8115 9.736V16H42.6115V7.504H44.4675L44.6355 8.328C44.9022 7.96533 45.1715 7.69067 45.4435 7.504C45.7155 7.31733 46.0382 7.224 46.4115 7.224C46.7315 7.224 47.0035 7.30667 47.2275 7.472C47.4568 7.632 47.6195 7.88533 47.7155 8.232C47.9715 7.93333 48.2542 7.69067 48.5635 7.504C48.8728 7.31733 49.2142 7.224 49.5875 7.224ZM60.0533 13.552C60.0533 13.872 60.0959 14.104 60.1813 14.248C60.2719 14.392 60.4159 14.5013 60.6133 14.576L60.0933 16.24C59.5919 16.192 59.1679 16.0827 58.8213 15.912C58.4799 15.736 58.2106 15.472 58.0133 15.12C57.6879 15.5093 57.2719 15.8 56.7653 15.992C56.2586 16.1787 55.7413 16.272 55.2133 16.272C54.3386 16.272 53.6399 16.024 53.1173 15.528C52.5999 15.0267 52.3413 14.384 52.3413 13.6C52.3413 12.6773 52.7013 11.9653 53.4213 11.464C54.1466 10.9627 55.1653 10.712 56.4773 10.712H57.6213V10.392C57.6213 9.94933 57.4773 9.62133 57.1893 9.408C56.9066 9.19467 56.4906 9.088 55.9413 9.088C55.6693 9.088 55.3199 9.128 54.8933 9.208C54.4666 9.28267 54.0399 9.392 53.6133 9.536L53.0293 7.856C53.5786 7.648 54.1493 7.49067 54.7413 7.384C55.3386 7.27733 55.8719 7.224 56.3413 7.224C57.6053 7.224 58.5386 7.48267 59.1413 8C59.7493 8.512 60.0533 9.25333 60.0533 10.224V13.552ZM56.0853 14.464C56.3573 14.464 56.6426 14.384 56.9413 14.224C57.2399 14.0587 57.4666 13.8267 57.6213 13.528V12.152H56.9973C56.2933 12.152 55.7759 12.2613 55.4453 12.48C55.1146 12.6933 54.9493 13.008 54.9493 13.424C54.9493 13.7493 55.0479 14.0053 55.2453 14.192C55.4479 14.3733 55.7279 14.464 56.0853 14.464Z" fill="white"/>
</svg>
