<svg width="114" height="114" viewBox="0 0 114 114" fill="none" xmlns="http://www.w3.org/2000/svg">
<mask id="path-1-inside-1_1_340" fill="white">
<path d="M114 84.75H57.5V56.5H85.75V28.25H57.5V0H114V84.75Z"/>
</mask>
<path d="M114 84.75V85.75H115V84.75H114ZM57.5 84.75H56.5V85.75H57.5V84.75ZM57.5 56.5V55.5H56.5V56.5H57.5ZM85.75 56.5V57.5H86.75V56.5H85.75ZM85.75 28.25H86.75V27.25H85.75V28.25ZM57.5 28.25H56.5V29.25H57.5V28.25ZM57.5 0V-1H56.5V0H57.5ZM114 0H115V-1H114V0ZM114 84.75V83.75H57.5V84.75V85.75H114V84.75ZM57.5 84.75H58.5V56.5H57.5H56.5V84.75H57.5ZM57.5 56.5V57.5H85.75V56.5V55.5H57.5V56.5ZM85.75 56.5H86.75V28.25H85.75H84.75V56.5H85.75ZM85.75 28.25V27.25H57.5V28.25V29.25H85.75V28.25ZM57.5 28.25H58.5V0H57.5H56.5V28.25H57.5ZM57.5 0V1H114V0V-1H57.5V0ZM114 0H113V84.75H114H115V0H114Z" fill="#C778DD" mask="url(#path-1-inside-1_1_340)"/>
<mask id="path-3-outside-2_1_340" maskUnits="userSpaceOnUse" x="0" y="27.25" width="59" height="87" fill="black">
<rect fill="white" y="27.25" width="59" height="87"/>
<path fill-rule="evenodd" clip-rule="evenodd" d="M1 28.25H29.25H57.5V56.5H29.25V84.75H57.5V113H29.25H1V84.75V56.5V28.25Z"/>
</mask>
<path d="M1 28.25V27.25H0V28.25H1ZM57.5 28.25H58.5V27.25H57.5V28.25ZM57.5 56.5V57.5H58.5V56.5H57.5ZM29.25 56.5V55.5H28.25V56.5H29.25ZM29.25 84.75H28.25V85.75H29.25V84.75ZM57.5 84.75H58.5V83.75H57.5V84.75ZM57.5 113V114H58.5V113H57.5ZM1 113H0V114H1V113ZM29.25 28.25V27.25H1V28.25V29.25H29.25V28.25ZM57.5 28.25V27.25H29.25V28.25V29.25H57.5V28.25ZM57.5 56.5H58.5V28.25H57.5H56.5V56.5H57.5ZM29.25 56.5V57.5H57.5V56.5V55.5H29.25V56.5ZM29.25 84.75H30.25V56.5H29.25H28.25V84.75H29.25ZM29.25 84.75V85.75H57.5V84.75V83.75H29.25V84.75ZM57.5 84.75H56.5V113H57.5H58.5V84.75H57.5ZM57.5 113V112H29.25V113V114H57.5V113ZM1 113V114H29.25V113V112H1V113ZM1 84.75H0V113H1H2V84.75H1ZM1 56.5H0V84.75H1H2V56.5H1ZM1 28.25H0V56.5H1H2V28.25H1Z" fill="#C778DD" mask="url(#path-3-outside-2_1_340)"/>
</svg>
